<?xml version="1.0" encoding="UTF-8"?>
<svg id="Camada_1" data-name="Camada 1" xmlns="http://www.w3.org/2000/svg" version="1.1" viewBox="0 0 587.62 276.54">
  <defs>
    <style>
      .cls-1 {
        fill: #fc0;
      }

      .cls-1, .cls-2 {
        stroke-width: 0px;
      }

      .cls-2 {
        fill: #fff;
      }
    </style>
  </defs>
  <path class="cls-2" d="M87.16,15.05c-.24-.38-.6-.57-1.09-.57h-21.14c-1.06,0-1.79.48-2.17,1.43l-23.9,65.27c-.1.29-.27.43-.51.43s-.36-.14-.36-.43L29.88,15.91c-.1-.95-.68-1.43-1.74-1.43H6.56c-.48,0-.87.17-1.16.5-.29.34-.43.74-.43,1.22v.29l16.37,96.97c.19.96.72,1.43,1.59,1.43h21.43c.87,0,1.54-.48,2.03-1.43L87.23,16.49c.19-.57.17-1.05-.07-1.43ZM106.35,34.13c3.77,0,7.02-1.39,9.78-4.16,2.75-2.77,4.13-6.17,4.13-10.18,0-3.25-.99-5.83-2.97-7.75-1.98-1.91-4.61-2.87-7.89-2.87-3.86,0-7.15,1.34-9.85,4.02-2.7,2.68-4.06,6.07-4.06,10.18,0,3.16.99,5.74,2.97,7.75,1.98,2.01,4.61,3.01,7.89,3.01ZM115.33,40.73h-19.99c-.48,0-.89.17-1.23.5-.34.34-.56.74-.65,1.22l-8.69,70.72c-.1.48,0,.89.29,1.22.29.34.67.5,1.16.5h19.99c.48,0,.89-.17,1.23-.5.34-.33.55-.74.65-1.22l8.69-70.72c.09-.48,0-.88-.29-1.22-.29-.33-.68-.5-1.16-.5ZM154.14,14.48h-19.99c-.48,0-.89.17-1.23.5-.34.34-.56.74-.65,1.22l-12.02,96.97c-.1.48,0,.89.29,1.22.29.34.67.5,1.16.5h19.99c.48,0,.89-.17,1.23-.5.34-.33.55-.74.65-1.22l12.02-96.97c.09-.48,0-.88-.29-1.22-.29-.33-.68-.5-1.16-.5ZM230.89,40.73h-19.99c-.48,0-.89.17-1.23.5-.34.34-.56.74-.65,1.22l-.58,4.16c0,.29-.1.48-.29.57-.19.1-.39,0-.58-.29-2.8-4.88-7.77-7.32-14.92-7.32-6.57,0-12.46,1.84-17.67,5.52-5.21,3.68-9.17,8.39-11.88,14.13-2.61,5.16-4.3,11.28-5.07,18.36-.48,3.64-.72,6.79-.72,9.47s.19,4.88.58,6.89c1.16,6.79,3.93,12.17,8.33,16.14,4.39,3.97,9.73,5.95,16,5.95,7.34,0,13.27-2.87,17.81-8.61.29-.29.51-.38.65-.29.14.1.22.29.22.57l-.72,5.45c-.1.48,0,.89.29,1.22.29.34.67.5,1.16.5h19.99c.48,0,.89-.17,1.23-.5.34-.33.55-.74.65-1.22l8.83-70.72c.1-.48,0-.88-.29-1.22-.29-.33-.68-.5-1.16-.5ZM204.54,77.88c-.48,4.78-1.55,8.51-3.19,11.19-2.32,4.4-5.6,6.6-9.85,6.6-2.22,0-4.08-.6-5.58-1.79-1.5-1.19-2.53-2.75-3.11-4.66-.48-1.43-.72-3.39-.72-5.88,0-2.29.1-4.11.29-5.45.67-5.07,1.79-8.89,3.33-11.48,1.06-2.01,2.46-3.59,4.2-4.73,1.74-1.15,3.72-1.72,5.94-1.72s3.89.55,5.29,1.65c1.4,1.1,2.39,2.61,2.97,4.52.58,1.72.87,3.68.87,5.88,0,1.63-.15,3.59-.43,5.88ZM327.71,14.82c-.24-.38-.6-.57-1.09-.57h-21.14c-1.06,0-1.79.48-2.17,1.43l-23.9,65.27c-.1.29-.27.43-.51.43s-.36-.14-.36-.43l-8.11-65.27c-.1-.95-.68-1.43-1.74-1.43h-21.58c-.48,0-.87.17-1.16.5-.29.34-.43.74-.43,1.22v.29l16.37,96.97c.19.96.72,1.43,1.59,1.43h21.43c.87,0,1.54-.48,2.03-1.43l40.84-96.97c.19-.57.17-1.05-.07-1.43ZM384.05,54.62c-2.46-4.83-5.96-8.61-10.5-11.33-4.54-2.73-9.9-4.09-16.08-4.09-7.63,0-14.51,2.03-20.64,6.1-6.13,4.07-10.84,9.64-14.12,16.71-2.22,5.16-3.62,10.38-4.2,15.64-.29,2.3-.43,4.45-.43,6.45,0,3.64.43,7.03,1.3,10.18,1.83,6.79,5.5,12.07,11.01,15.85,5.5,3.78,12.5,5.67,21,5.67,5.7,0,11.08-.96,16.15-2.87s9.44-4.68,13.11-8.32c.48-.48.72-.91.72-1.29s-.14-.72-.43-1l-9.27-12.62c-.29-.38-.63-.57-1.01-.57-.48,0-.92.24-1.3.72-3.96,3.92-8.83,5.88-14.63,5.88-3.28,0-5.99-.62-8.11-1.86-2.12-1.24-3.62-2.87-4.49-4.88-.48-1.34-.77-2.73-.87-4.16,0-.48.29-.72.87-.72h42.72c1.16,0,1.88-.57,2.17-1.72.67-4.68.96-8.46.87-11.33-.1-6.12-1.38-11.59-3.84-16.42ZM363.7,70.47h-19.99c-.48,0-.63-.24-.43-.72.38-1.34.72-2.34,1.01-3.01,2.32-4.68,5.84-7.03,10.57-7.03,2.61,0,4.71.62,6.3,1.86,1.59,1.24,2.58,3.06,2.97,5.45.19,1.15.29,2.06.29,2.73,0,.48-.24.72-.72.72ZM426.55,14.24h-19.99c-.48,0-.89.17-1.23.5-.34.34-.56.74-.65,1.22l-12.02,96.97c-.1.48,0,.89.29,1.22.29.34.67.5,1.16.5h19.99c.48,0,.89-.17,1.23-.5.34-.33.55-.74.65-1.22l12.02-96.97c.09-.48,0-.88-.29-1.22-.29-.33-.68-.5-1.16-.5ZM478.11,39.34c-7.63,0-13.57,2.82-17.81,8.46-.19.29-.39.41-.58.36-.19-.05-.24-.26-.14-.65l3.91-31.56c.09-.48,0-.88-.29-1.22-.29-.33-.68-.5-1.16-.5h-19.99c-.48,0-.89.17-1.23.5-.34.34-.56.74-.65,1.22l-12.02,96.97c-.1.48,0,.89.29,1.22.29.34.67.5,1.16.5h19.99c.48,0,.89-.17,1.23-.5.34-.33.55-.74.65-1.22l5.21-42.03c.38-3.35,1.62-6.05,3.69-8.1,2.07-2.06,4.51-3.08,7.31-3.08,2.51,0,4.54.86,6.08,2.58,1.54,1.72,2.32,4.02,2.32,6.89l-.14,1.72-5.21,42.03c-.1.48,0,.89.29,1.22.29.34.67.5,1.16.5h19.99c.48,0,.89-.17,1.23-.5.34-.33.55-.74.65-1.22l5.79-47.19c.19-2.1.29-3.54.29-4.3,0-6.89-2-12.29-6.01-16.21-4.01-3.92-9.34-5.88-16-5.88ZM582.09,40.99c-.29-.33-.68-.5-1.16-.5h-19.99c-.48,0-.89.17-1.23.5-.34.34-.56.74-.65,1.22l-.58,4.16c0,.29-.1.48-.29.57-.19.1-.39,0-.58-.29-2.8-4.88-7.77-7.32-14.92-7.32-6.57,0-12.46,1.84-17.67,5.52-5.21,3.68-9.17,8.39-11.88,14.13-2.61,5.16-4.3,11.28-5.07,18.36-.48,3.64-.72,6.79-.72,9.47s.19,4.88.58,6.89c1.16,6.79,3.93,12.17,8.33,16.14,4.39,3.97,9.73,5.95,16,5.95,7.34,0,13.27-2.87,17.81-8.61.29-.29.51-.38.65-.29.14.1.22.29.22.57l-.72,5.45c-.1.48,0,.89.29,1.22.29.34.67.5,1.16.5h19.99c.48,0,.89-.17,1.23-.5.34-.33.55-.74.65-1.22l8.83-70.72c.1-.48,0-.88-.29-1.22ZM554.57,77.64c-.48,4.78-1.55,8.51-3.19,11.19-2.32,4.4-5.6,6.6-9.85,6.6-2.22,0-4.08-.6-5.58-1.79-1.5-1.19-2.53-2.75-3.11-4.66-.48-1.43-.72-3.39-.72-5.88,0-2.3.1-4.11.29-5.45.67-5.07,1.79-8.89,3.33-11.48,1.06-2.01,2.46-3.59,4.2-4.73,1.74-1.15,3.72-1.72,5.94-1.72s3.89.55,5.29,1.65c1.4,1.1,2.39,2.61,2.97,4.52.58,1.72.87,3.68.87,5.88,0,1.63-.14,3.59-.43,5.88Z"/>
  <path class="cls-1" d="M39.09,138.52c-3.76,0-7.69.17-11.79.52-5.13-.17-20.16,2.94-20.16,2.94,0,1.21-.17,2.25-.17,3.28,0,6.4.17,9.33,3.08,16.6,2.39-1.04,8.03-2.42,9.91-2.94l9.57,96.8c44.25-9.33,63.21-25.58,63.21-63.27,0-2.94,0-5.88-.34-8.82-3.59-32.84-23.41-45.12-53.3-45.12ZM46.95,228.76c-2.73-24.89-4.61-45.98-7-70.36,15.55-1.38,30.41,5.88,31.61,24.89.34,3.28.51,6.22.51,8.99,0,19.36-7.18,34.23-25.11,36.47ZM105.73,133.51c3.25,19.19,3.25,46.15,3.25,62.58-.85,16.42-.51,37.17-1.54,54.8,10.59.35,7.35.17,17.94.86l4.95.17c.17-1.04.17-2.25.17-3.46l-.17-42.52c-.17-19.36,0-41.83-.34-52.72l.68-20.4-24.94.69ZM219.86,134.89c-4.44,14.17-10.25,30.25-17.94,54.11-4.78,12.96-8.37,24.37-12.81,34.92-4.27-13.31-8.37-23.34-9.4-28.87-4.95-17.11-8.71-33.02-13.84-50.13l-2.22-8.3c-8.37.35-15.2,2.07-20.16,6.05,8.37,29.91,14.52,52.03,17.25,60.33l19.31,54.8,14.18,2.42c7.52-17.11,13.5-32.15,17.43-42.01,14.18-35.96,16.91-41.83,22.72-58.08,2.05-5.88,5.98-15.38,7-18.15-3.25-2.42-10.25-6.22-21.53-7.09ZM310.93,140.08c-6.15-1.38-8.2-1.38-10.08-1.38-2.56,0-5.81.52-11.1,1.73,0,14.52,1.88,62.23,1.88,68.63,0,5.19-1.71,15.56-7.52,18.15l-1.2.86c-3.08,1.56-5.81,2.42-6.83,2.42-1.71,0-7.35-2.25-8.71-5.19-1.88-3.63-2.22-13.48-2.73-45.12,0-10.37-.17-22.99-.51-26.45l-.85-8.64c-2.73-.35-5.13-.52-7.69-.52-5.3,0-10.42.69-15.2,1.9l1.03,19.19c1.54,28.7,3.59,61.71,5.81,66.9v-.17c3.59,7.95,16.91,17.29,28.36,17.29,1.2,0,2.56,0,3.76-.35,4.27-.52,9.05-2.77,14.35-6.4l-.17.17c14.86-9.16,18.28-22.82,18.28-36.65,0-5.53-.68-47.88-.68-60.85,0-1.9-.17-3.8-.17-5.53ZM342.04,243.45c2.56-23.86,3.76-35.26,4.27-45.29l2.05-47.19c.17-1.38.17-2.59.17-3.8l.34-8.47c-4.78-1.56-8.54-2.25-11.28-2.25-2.39,0-5.47.35-10.25,1.73l-2.56,58.95c-.51,10.37-2.39,27.31-4.95,50.99l-1.54,14.17,4.1.69c13.5,2.77,44.08,3.28,71.58,5.19,1.37-4.67,2.05-11.06,2.05-16.08,0-1.9-.17-3.63-.34-5.01-20.67-1.73-36.73-2.59-53.64-3.63ZM484.02,176.55c-24.94,3.46-35.88,1.73-50.06,3.8v19.19c5.3-.52,7.86-1.04,15.72-1.04-.51,15.21-.85,22.3-.85,30.94,0,2.59,0,4.84.17,6.74-1.88.69-3.25,1.04-4.95,1.04-4.61,0-10.25-2.59-15.2-7.78-8.54-7.78-10.42-15.9-10.42-28.52,0-13.66.17-24.72,5.3-39.59,5.47-16.08,15.55-20.57,21.53-20.57,8.03,0,10.25,3.98,10.25,9.33,0,2.25-.17,4.49-.51,7.26,1.03.17,2.22.17,3.25.17,6.49,0,12.98-2.42,19.82-4.15-.34-3.11-.34-6.05-.68-9.16-1.71-15.56-15.03-23.68-31.95-23.68-13.67,0-31.26,10.89-40.83,33.71-6.83,16.77-7.52,30.94-7.52,48.06v3.11c0,36.65,25.97,52.03,46.47,52.03,9.91,0,19.13-3.63,26.99-8.64-.17-5.01-.34-12.62-.34-19.53,0-9.16.17-19.88.51-32.5,2.39,0,4.61-.17,6.83-.17h7.52c0-.86-.17-1.73-.17-2.59,0-2.07.17-4.32.17-6.4,0-2.42-.34-5.7-1.02-11.06ZM544.34,120.89c-7,1.04-14.18,2.07-21.18,3.28-8.03,26.79-14.01,53.24-19.65,74.5-4.61,0-5.3,0-15.38-.17-1.37,3.98-2.73,8.12-2.73,12.96,0,2.25.17,4.32.34,5.88h4.61c5.3,0,7,.17,8.88.17-1.2,9.33-4.44,24.72-5.47,31.29l-1.37,8.64c4.78,1.9,10.08,2.94,16.74,2.94,1.2,0,2.39-.17,3.59-.17,1.54-11.75,5.47-31.29,7.18-42.01,11.1,0,23.41-.35,31.43-.86l9.4,33.36c2.39.35,4.95.52,7.35.52,4.1,0,9.74-1.21,12.98-3.28-9.05-34.05-27.85-95.94-36.73-127.06ZM524.01,198.68c2.56-13.31,7-27.14,10.59-42.7,3.42,12.27,8.37,29.21,11.79,41.83-6.15.35-15.55.69-22.38.86Z"/>
</svg>